<?xml version="1.0" standalone="no"?>
<!DOCTYPE svg PUBLIC "-//W3C//DTD SVG 20010904//EN"
 "http://www.w3.org/TR/2001/REC-SVG-20010904/DTD/svg10.dtd">
<svg version="1.0" xmlns="http://www.w3.org/2000/svg"
 width="512.000000pt" height="512.000000pt" viewBox="0 0 512.000000 512.000000"
 preserveAspectRatio="xMidYMid meet">
<metadata>
Created by potrace 1.14, written by Peter Selinger 2001-2017
</metadata>
<g transform="translate(0.000000,512.000000) scale(0.100000,-0.100000)"
fill="#000000" stroke="none">
<path d="M1311 4055 c-111 -35 -163 -163 -110 -272 89 -185 369 -120 369 86 0
61 -13 97 -48 134 -54 57 -134 77 -211 52z"/>
<path d="M3993 3653 c4 -203 7 -596 7 -875 l0 -508 138 0 139 0 6 647 c4 355
7 749 7 875 l0 228 -152 0 -151 0 6 -367z"/>
<path d="M2598 3370 c-265 -48 -456 -197 -578 -451 -57 -121 -81 -220 -87
-374 -4 -98 -1 -152 11 -218 66 -348 292 -603 602 -679 124 -30 335 -30 448 1
164 44 308 147 396 282 44 68 94 191 105 257 l7 42 -145 0 -145 0 -17 -49
c-25 -75 -86 -163 -143 -204 -89 -66 -133 -80 -263 -85 -171 -6 -264 24 -367
122 -135 127 -200 308 -189 530 16 343 223 573 518 575 220 2 369 -96 441
-289 l16 -45 146 -3 c163 -3 154 -8 132 73 -67 248 -238 430 -466 495 -58 17
-109 23 -225 25 -82 2 -171 0 -197 -5z"/>
<path d="M1230 2483 c0 -553 -4 -892 -11 -933 -14 -93 -43 -147 -96 -180 -58
-37 -161 -55 -265 -45 l-78 6 0 -130 c0 -90 4 -132 12 -137 21 -13 270 -17
333 -5 139 26 273 124 333 244 70 138 66 82 70 1115 l3 932 -151 0 -150 0 0
-867z"/>
<path d="M4065 2001 c-78 -36 -115 -95 -115 -182 0 -118 84 -195 205 -187 107
7 175 73 183 177 11 150 -138 254 -273 192z"/>
</g>
</svg>
